HIERARCHY
ROOT Hips
{
	OFFSET 0.000000 89.005402 0.000000
	CHANNELS 6 Xposition Yposition Zposition Xrotation Yrotation Zrotation
	JOINT Spine
	{
		OFFSET 0.116900 10.681000 0.373400
		CHANNELS 3 Xrotation Yrotation Zrotation
		JOINT Spine1
		{
			OFFSET 0.000000 13.840401 0.053500
			CHANNELS 3 Xrotation Yrotation Zrotation
			JOINT Spine2
			{
				OFFSET 0.000000 14.712700 -0.366200
				CHANNELS 3 Xrotation Yrotation Zrotation
				JOINT Neck
				{
					OFFSET 0.000000 35.415497 -3.314200
					CHANNELS 3 Xrotation Yrotation Zrotation
					JOINT Head
					{
						OFFSET 0.000000 16.899200 1.218300
						CHANNELS 3 Xrotation Yrotation Zrotation
						JOINT HeadTop_End
						{
							OFFSET 0.000000 22.206207 2.192500
							CHANNELS 3 Xrotation Yrotation Zrotation
							End Site
							{
								OFFSET 0.000000 22.314178 0.000000
							}
						}
					}
				}
				JOINT LeftShoulder
				{
					OFFSET 12.896400 26.716293 -4.548400
					CHANNELS 3 Xrotation Yrotation Zrotation
					JOINT LeftArm
					{
						OFFSET 19.027000 -4.857010 -1.718400
						CHANNELS 3 Xrotation Yrotation Zrotation
						JOINT LeftForeArm
						{
							OFFSET 24.179897 0.000000 0.000000
							CHANNELS 3 Xrotation Yrotation Zrotation
							JOINT LeftHand
							{
								OFFSET 27.156403 0.000000 0.000000
								CHANNELS 3 Xrotation Yrotation Zrotation
								JOINT LeftHandIndex1
								{
									OFFSET 16.441200 0.000000 0.000000
									CHANNELS 3 Xrotation Yrotation Zrotation
									JOINT LeftHandIndex2
									{
										OFFSET 4.821899 0.000000 0.000000
										CHANNELS 3 Xrotation Yrotation Zrotation
										JOINT LeftHandIndex3
										{
											OFFSET 6.386497 0.000000 0.000000
											CHANNELS 3 Xrotation Yrotation Zrotation
											JOINT LeftHandIndex4
											{
												OFFSET 5.188988 0.000000 0.000000
												CHANNELS 3 Xrotation Yrotation Zrotation
												End Site
												{
													OFFSET -0.178703 5.185913 0.000177
												}
											}
										}
									}
								}
								JOINT LeftHandThumb1
								{
									OFFSET 6.534897 -5.032593 5.900300
									CHANNELS 3 Xrotation Yrotation Zrotation
									JOINT LeftHandThumb2
									{
										OFFSET 3.818176 -2.204422 2.204423
										CHANNELS 3 Xrotation Yrotation Zrotation
										JOINT LeftHandThumb3
										{
											OFFSET 3.252098 -1.877594 1.877601
											CHANNELS 3 Xrotation Yrotation Zrotation
											JOINT LeftHandThumb4
											{
												OFFSET 5.251778 -3.032120 3.032117
												CHANNELS 3 Xrotation Yrotation Zrotation
												End Site
												{
													OFFSET 0.000023 6.780014 0.000000
												}
											}
										}
									}
								}
							}
						}
					}
				}
				JOINT RightShoulder
				{
					OFFSET -12.896300 26.716293 -4.548400
					CHANNELS 3 Xrotation Yrotation Zrotation
					JOINT RightArm
					{
						OFFSET -19.027000 -4.857010 -1.718400
						CHANNELS 3 Xrotation Yrotation Zrotation
						JOINT RightForeArm
						{
							OFFSET -24.179897 0.000000 0.000000
							CHANNELS 3 Xrotation Yrotation Zrotation
							JOINT RightHand
							{
								OFFSET -27.156403 0.000000 0.000000
								CHANNELS 3 Xrotation Yrotation Zrotation
								JOINT RightHandThumb1
								{
									OFFSET -6.591202 -4.852203 5.988100
									CHANNELS 3 Xrotation Yrotation Zrotation
									JOINT RightHandThumb2
									{
										OFFSET -3.818176 -2.204422 2.204423
										CHANNELS 3 Xrotation Yrotation Zrotation
										JOINT RightHandThumb3
										{
											OFFSET -3.252098 -1.877594 1.877601
											CHANNELS 3 Xrotation Yrotation Zrotation
											JOINT RightHandThumb4
											{
												OFFSET -5.251778 -3.032120 3.032117
												CHANNELS 3 Xrotation Yrotation Zrotation
												End Site
												{
													OFFSET -0.000023 6.780014 0.000000
												}
											}
										}
									}
								}
								JOINT RightHandIndex1
								{
									OFFSET -16.029404 0.000000 0.000000
									CHANNELS 3 Xrotation Yrotation Zrotation
									JOINT RightHandIndex2
									{
										OFFSET -5.213303 0.000000 0.000000
										CHANNELS 3 Xrotation Yrotation Zrotation
										JOINT RightHandIndex3
										{
											OFFSET -6.386528 0.000000 0.000000
											CHANNELS 3 Xrotation Yrotation Zrotation
											JOINT RightHandIndex4
											{
												OFFSET -5.189026 0.000000 0.000000
												CHANNELS 3 Xrotation Yrotation Zrotation
												End Site
												{
													OFFSET 0.236702 5.183624 0.001972
												}
											}
										}
									}
								}
							}
						}
					}
				}
			}
		}
	}
	JOINT LeftUpLeg
	{
		OFFSET 14.073000 -7.904099 -1.463000
		CHANNELS 3 Xrotation Yrotation Zrotation
		JOINT LeftLeg
		{
			OFFSET -0.109806 -34.073280 4.093200
			CHANNELS 3 Xrotation Yrotation Zrotation
			JOINT LeftFoot
			{
				OFFSET 0.109806 -29.899420 -6.319000
				CHANNELS 3 Xrotation Yrotation Zrotation
				JOINT LeftToeBase
				{
					OFFSET 1.551100 -14.988700 20.535801
					CHANNELS 3 Xrotation Yrotation Zrotation
					JOINT LeftToe_End
					{
						OFFSET 0.221200 0.570800 13.248301
						CHANNELS 3 Xrotation Yrotation Zrotation
						End Site
						{
							OFFSET 0.000000 13.262435 0.000000
						}
					}
				}
			}
		}
	}
	JOINT RightUpLeg
	{
		OFFSET -13.839300 -7.904099 -1.463000
		CHANNELS 3 Xrotation Yrotation Zrotation
		JOINT RightLeg
		{
			OFFSET 0.109694 -34.073219 4.093300
			CHANNELS 3 Xrotation Yrotation Zrotation
			JOINT RightFoot
			{
				OFFSET -0.109694 -29.899384 -6.319200
				CHANNELS 3 Xrotation Yrotation Zrotation
				JOINT RightToeBase
				{
					OFFSET -1.551100 -14.988700 20.535801
					CHANNELS 3 Xrotation Yrotation Zrotation
					JOINT RightToe_End
					{
						OFFSET -0.221200 0.570900 13.248299
						CHANNELS 3 Xrotation Yrotation Zrotation
						End Site
						{
							OFFSET 0.000000 13.262440 0.000000
						}
					}
				}
			}
		}
	}
}
MOTION
Frames: 8
Frame Time: 0.033333
-0.224663 74.737869 0.582989 7.446539 -10.412051 -2.506312 4.685799 2.879607 3.829499 4.589760 4.664098 -1.150959 4.494197 4.424912 -1.221257 -0.488592 0.460187 1.023620 -31.839716 1.900824 1.977882 -0.000000 0.000000 0.000000 0.708663 5.469510 -11.833349 22.357653 -4.971224 -59.358053 0.000002 -107.474720 0.000009 -36.712332 -8.468544 -1.093942 0.734743 3.099847 -26.663549 0.450105 2.453009 -20.792175 0.113395 1.246961 -10.391265 -0.000003 -0.000002 0.000004 -1.540063 3.690204 6.142344 5.088790 22.525925 1.781773 0.074593 8.846509 3.239340 0.000000 -0.000003 -0.000002 0.105892 -4.106895 11.145987 -1.049234 19.393948 52.261305 -0.000083 100.458969 0.000061 -6.813684 10.267738 -4.767550 -1.849247 -3.581792 -6.586154 5.910491 -23.206546 -1.164135 -0.617196 -7.129277 -2.857705 -0.000000 -0.000000 0.000000 0.741795 -3.129925 26.660274 0.454411 -2.476802 20.789467 0.114479 -1.259050 10.389828 0.000001 0.000000 0.000001 -48.709661 12.002522 7.543229 98.410062 10.825014 3.268055 5.351276 -0.555988 16.257419 -25.528396 7.269290 -15.824811 -0.000003 -0.000001 0.000000 -18.524291 1.643142 8.021439 51.981397 -0.765534 2.642674 -40.880755 2.157784 -5.223914 -0.369246 -0.000001 0.000001 0.000000 -0.000000 0.000000 
-0.268824 76.623154 8.266122 8.551821 -10.684414 -1.629447 4.394869 3.080231 3.268863 3.952760 5.691690 -1.782925 3.903310 5.512457 -1.786514 -0.581850 -0.021656 1.037564 -30.497625 -0.637399 2.113627 -0.000001 0.000000 0.000000 0.715521 5.403525 -11.881106 28.480147 -2.514354 -57.945686 -0.000005 -108.270116 0.000024 -37.123441 -8.812120 -0.567422 0.734745 3.099847 -26.663546 0.450102 2.453007 -20.792170 0.113396 1.246959 -10.391271 -0.000002 0.000002 -0.000002 -1.540060 3.690204 6.142346 5.088789 22.525921 1.781773 0.074593 8.846509 3.239341 0.000001 0.000001 0.000000 0.017893 -4.820089 10.885445 -4.453330 23.628674 51.892468 0.000124 102.817262 -0.000164 -6.331917 11.729317 -9.516579 -1.849247 -3.581792 -6.586155 5.910492 -23.206548 -1.164135 -0.617197 -7.129276 -2.857705 -0.000002 0.000001 -0.000001 0.741795 -3.129925 26.660274 0.454411 -2.476799 20.789467 0.114477 -1.259048 10.389825 -0.000000 -0.000001 0.000000 -53.341520 10.306173 5.679697 91.603260 10.546185 3.428555 3.384358 -0.936180 15.232232 -27.863542 8.586793 -16.731704 0.000002 -0.000001 0.000000 -9.337476 2.362654 6.011462 43.189287 -0.821770 2.212137 -39.947341 2.124690 -4.615871 -6.753105 -0.000003 0.000000 0.000001 0.000000 -0.000000 
-0.295923 79.474251 16.209818 10.135296 -10.163557 -0.618784 3.393820 3.186152 2.801172 2.905484 6.448941 -2.464009 2.925325 6.303497 -2.461626 -0.372838 -0.509683 1.165496 -29.431220 -3.362519 2.546627 0.000000 -0.000000 0.000000 0.704386 5.024157 -11.734832 34.109545 0.539126 -56.918487 0.000014 -110.015243 0.000022 -38.550599 -8.815950 -0.038933 0.734749 3.099846 -26.663549 0.450103 2.453008 -20.792168 0.113397 1.246959 -10.391270 -0.000002 -0.000002 0.000001 -1.540058 3.690205 6.142347 5.088790 22.525930 1.781775 0.074594 8.846509 3.239340 0.000001 -0.000001 -0.000000 -0.066948 -5.459906 10.732878 -5.566746 27.968216 51.122538 0.000006 104.086694 0.000002 -7.203054 11.855802 -12.157220 -1.849246 -3.581790 -6.586154 5.910495 -23.206550 -1.164138 -0.617193 -7.129276 -2.857703 -0.000002 -0.000001 0.000001 0.741795 -3.129926 26.660274 0.454409 -2.476803 20.789474 0.114477 -1.259049 10.389826 0.000001 0.000000 0.000001 -55.063206 8.608400 3.486506 78.594741 10.437010 3.809369 2.099240 -0.600779 12.763634 -21.036180 5.492358 -14.917471 0.000002 0.000000 -0.000000 -4.395711 2.160603 3.407492 38.239996 -1.399105 2.054185 -31.786300 0.857653 -2.108914 -19.205409 -0.017893 0.406873 -0.000000 -0.000000 0.000000 
-0.313993 82.406891 23.964968 11.284128 -9.112761 0.469884 2.367087 3.184874 2.101807 2.178085 6.909670 -3.130946 2.280981 6.777160 -3.135070 0.093009 -0.964617 1.425099 -28.720078 -5.984277 3.125075 -0.000001 -0.000000 0.000000 0.684743 4.400365 -11.448476 38.376183 3.727724 -56.436391 -0.000021 -112.431723 0.000003 -40.344005 -8.628689 0.355638 0.734746 3.099842 -26.663547 0.450103 2.453012 -20.792172 0.113396 1.246962 -10.391271 0.000001 0.000002 -0.000003 -1.540057 3.690202 6.142343 5.088790 22.525931 1.781776 0.074596 8.846514 3.239342 0.000003 0.000001 0.000000 -0.132020 -5.937891 10.718453 -4.576403 31.575807 49.345791 0.000002 106.031338 0.000000 -9.530503 10.929530 -12.662696 -1.849247 -3.581791 -6.586156 5.910491 -23.206548 -1.164136 -0.617195 -7.129275 -2.857706 -0.000003 -0.000000 -0.000000 0.741795 -3.129923 26.660269 0.454411 -2.476803 20.789463 0.114474 -1.259051 10.389828 0.000001 -0.000000 -0.000002 -54.958376 7.759436 1.394677 62.721525 10.016805 4.441426 1.804054 -0.188618 9.569780 -7.395836 0.954578 -8.825760 0.000000 0.000000 -0.000000 -0.805489 1.953298 0.427547 34.441103 -3.018475 1.941153 -19.916410 -0.631646 1.418393 -25.384512 -0.060147 0.273804 0.000000 0.000001 -0.000000 
-0.274282 84.551163 31.356695 10.712531 -7.458468 1.032901 2.392575 2.999038 1.396080 2.229596 7.006609 -3.551266 2.383049 6.878753 -3.537378 0.747032 -1.338970 1.812604 -28.443360 -8.173570 3.675264 0.000001 -0.000000 0.000000 0.668100 3.659185 -11.105727 40.361251 6.059971 -56.601614 -0.000035 -113.889422 -0.000042 -41.749562 -8.356946 0.460925 0.734746 3.099844 -26.663549 0.450101 2.453011 -20.792168 0.113396 1.246958 -10.391265 -0.000002 -0.000001 0.000001 -1.540055 3.690200 6.142344 5.088788 22.525928 1.781774 0.074593 8.846510 3.239341 -0.000002 0.000001 -0.000001 -0.161413 -6.165161 10.860878 -2.263537 33.900780 46.746108 -0.000033 110.181012 0.000044 -12.857630 9.102120 -11.159431 -1.849247 -3.581788 -6.586152 5.910490 -23.206548 -1.164140 -0.617196 -7.129274 -2.857703 0.000001 -0.000000 -0.000001 0.741793 -3.129923 26.660274 0.454413 -2.476802 20.789474 0.114478 -1.259049 10.389828 0.000003 -0.000001 0.000000 -51.171231 8.608309 0.090391 45.557813 5.633504 5.329959 2.061853 -0.255026 4.822606 -1.001448 0.000004 0.000000 -0.000001 -0.000000 -0.000000 2.330481 2.234846 -1.445943 32.792059 -6.737817 1.649065 -4.714151 -1.266256 5.861676 -41.334174 -0.641014 1.297351 0.000000 0.000002 0.000000 
-0.294038 85.027946 38.427914 9.420133 -5.676261 1.273067 2.467275 2.740359 0.684256 2.550079 6.719975 -3.798787 2.713122 6.550202 -3.808159 1.445341 -1.593407 2.255321 -28.589579 -9.663969 4.032026 0.000000 0.000000 -0.000000 0.661569 3.043354 -10.843642 40.016050 7.398390 -56.958696 -0.000002 -113.266577 -0.000010 -42.059233 -8.099718 0.166961 0.734748 3.099844 -26.663546 0.450105 2.453009 -20.792166 0.113396 1.246960 -10.391270 0.000003 -0.000000 0.000001 -1.540054 3.690201 6.142343 5.088789 22.525926 1.781771 0.074592 8.846511 3.239343 -0.000002 0.000002 0.000000 -0.152103 -6.117447 11.119603 1.365301 35.366354 44.475815 -0.000026 113.646507 0.000030 -15.856023 6.789700 -8.147394 -1.849249 -3.581793 -6.586162 5.910491 -23.206544 -1.164135 -0.617195 -7.129275 -2.857705 0.000001 0.000001 0.000002 0.741795 -3.129927 26.660271 0.454406 -2.476801 20.789470 0.114480 -1.259049 10.389828 -0.000002 -0.000001 0.000001 -45.621630 7.856854 -1.905163 30.939514 0.682899 5.750310 -0.026080 0.103508 0.020633 -1.354694 -0.000001 0.000000 -0.000000 0.000000 0.000000 4.812631 3.037286 -1.883681 32.594616 -10.595988 1.459108 10.932394 -1.367557 7.826726 -55.989899 -5.730665 4.249403 -0.000000 0.000001 0.000000 
-0.233687 84.055267 45.510872 7.795351 -3.942367 1.307568 2.676899 2.475985 0.303829 3.060701 6.013295 -3.875224 3.160746 5.780627 -3.934270 2.007788 -1.716828 2.637681 -29.046424 -10.384698 4.144633 -0.000000 0.000000 -0.000000 0.662282 2.798262 -10.783355 37.370854 7.080848 -57.240206 0.000060 -111.109016 0.000071 -41.052811 -7.949832 -0.500967 0.734746 3.099846 -26.663546 0.450106 2.453010 -20.792168 0.113397 1.246959 -10.391273 -0.000000 0.000002 -0.000002 -1.540062 3.690204 6.142345 5.088789 22.525923 1.781772 0.074596 8.846513 3.239343 0.000002 -0.000002 -0.000000 -0.115716 -5.853999 11.404492 5.373323 34.860766 43.178779 0.000006 115.418353 -0.000011 -16.968896 4.736069 -4.039369 -1.849247 -3.581791 -6.586158 5.910491 -23.206544 -1.164142 -0.617193 -7.129278 -2.857708 0.000000 0.000004 0.000001 0.741794 -3.129926 26.660269 0.454411 -2.476800 20.789470 0.114475 -1.259049 10.389827 0.000001 -0.000000 -0.000001 -41.048433 4.206525 -3.837418 22.481919 1.873478 5.655365 -3.069736 -0.876341 -3.658423 -1.624962 0.000000 0.000003 -0.000002 0.000000 -0.000000 7.100873 2.934810 -1.230960 31.585704 -10.196048 2.041066 26.251673 -3.248182 5.331293 -68.641168 -15.888951 7.464256 -0.000000 0.000001 -0.000000 
-0.051560 82.140282 52.507339 6.387524 -1.647058 1.926993 2.907587 1.989407 -0.195660 3.621640 4.850595 -3.896058 3.588444 4.578008 -4.004020 2.262119 -1.731592 2.862634 -29.630546 -10.476732 4.108881 0.000000 -0.000000 0.000001 0.666779 3.030328 -10.958376 32.878424 4.898361 -57.249874 0.000060 -109.062876 0.000059 -39.191427 -7.959334 -1.355923 0.734746 3.099847 -26.663551 0.450105 2.453010 -20.792170 0.113392 1.246960 -10.391270 -0.000000 -0.000001 0.000002 -1.540059 3.690205 6.142345 5.088788 22.525926 1.781774 0.074593 8.846512 3.239338 -0.000001 -0.000000 -0.000000 -0.069697 -5.491919 11.618009 8.923780 31.276461 43.338623 0.000040 114.800508 -0.000038 -15.343793 3.890147 0.844582 -1.849247 -3.581792 -6.586157 5.910491 -23.206548 -1.164140 -0.617193 -7.129276 -2.857698 -0.000000 -0.000002 -0.000003 0.741794 -3.129926 26.660271 0.454411 -2.476800 20.789472 0.114479 -1.259048 10.389826 0.000000 -0.000000 0.000000 -41.576639 5.592179 -6.561001 27.052076 4.017311 5.726493 -5.088707 -4.618470 -0.570632 -1.418886 -0.000001 0.000004 -0.000001 0.000000 -0.000000 3.824430 1.596465 -2.220995 44.772180 -10.362660 3.288230 29.048091 -3.863198 4.926772 35.884779 -10.374118 -14.793647 -0.000000 -0.000001 0.000000 
